<svg viewBox="1 1 176 176" xmlns="http://www.w3.org/2000/svg" xmlns:xlink="http://www.w3.org/1999/xlink">
    <defs>
        <circle cx="96" cy="96" id="a" r="88"/>
    </defs>
    <clipPath id="b">
        <use height="100%" overflow="visible" width="100%" xlink:href="#a"/>
    </clipPath>
    <g clip-path="url(#b)" transform="translate(-7 -7)">
        <path d="m21.97 8v108h39.39l34.64-60h88v-48z" fill="#db4437"/>
        <linearGradient gradientUnits="userSpaceOnUse" id="c" x1="29.337" x2="81.837" y1="75.021" y2="44.354">
            <stop offset="0" stop-color="#A52714" stop-opacity=".6"/>
            <stop offset=".66" stop-color="#A52714" stop-opacity="0"/>
        </linearGradient>
        <path d="m21.97 8v108h39.39l34.64-60h88v-48z" fill="url(#c)"/>
    </g>

    <g clip-path="url(#b)" transform="translate(-7 -7)">
        <path d="m8 184h83.77l38.88-38.88v-29.12h-69.29l-53.36-91.52z" fill="#0f9d58"/>
        <linearGradient gradientUnits="userSpaceOnUse" id="d" x1="110.87" x2="52.538" y1="164.5" y2="130.33">
            <stop offset="0" stop-color="#055524" stop-opacity=".4"/>
            <stop offset=".33" stop-color="#055524" stop-opacity="0"/>
        </linearGradient>
        <path d="m8 184h83.77l38.88-38.88v-29.12h-69.29l-53.36-91.52z" fill="url(#d)"/>
    </g>

    <g clip-path="url(#b)" transform="translate(-7 -7)">
        <path d="m96 56l34.65 60-38.88 68h92.23v-128z" fill="#ffcd40"/>
        <path d="m96 56l34.65 60-38.88 68h92.23v-128z" fill="url(#g)"/>
    </g>

    <g clip-path="url(#b)" transform="translate(-7 -7)">
        <circle cx="96" cy="96" fill="#f1f1f1" r="40"/>
        <circle cx="96" cy="96" fill="#4285f4" r="32"/>
    </g>

    <g clip-path="url(#b)" transform="translate(-7 -7)">
        <path d="m96 9c48.43 0 87.72 39.13 87.99 87.5 0-0.17 0.01-0.33 0.01-0.5 0-48.6-39.4-88-88-88s-88 39.4-88 88c0 0.17 0.01 0.33 0.01 0.5 0.27-48.37 39.56-87.5 87.99-87.5z"
              fill="#fff"
              fill-opacity=".2"/>
        <path d="m96 183c48.43 0 87.72-39.13 87.99-87.5 0 0.17 0.01 0.33 0.01 0.5 0 48.6-39.4 88-88 88s-88-39.4-88-88c0-0.17 0.01-0.33 0.01-0.5 0.27 48.37 39.56 87.5 87.99 87.5z"
              fill="#3e2723"
              fill-opacity=".15"/>
    </g>
</svg>
